<svg width="345" height="204" viewBox="0 0 345 204" fill="none" xmlns="http://www.w3.org/2000/svg">
<g opacity="0.4" clip-path="url(#clip0)">
<path opacity="0.2" d="M306.386 166.179C268.123 87.1734 225.642 47.6704 178.942 47.6704C132.243 47.6704 89.7612 87.1734 51.4979 166.179C49.5391 170.224 51.2354 175.088 55.2867 177.044C56.3926 177.578 57.6051 177.855 58.8335 177.855H299.051C303.551 177.855 307.199 174.213 307.199 169.72C307.199 168.494 306.921 167.283 306.386 166.179Z" fill="#90A0B7"/>
<g opacity="0.6">
<path fill-rule="evenodd" clip-rule="evenodd" d="M53.5809 98.1499L30.1599 112.226C26.9262 114.169 25.86 118.334 27.7786 121.528L55.5702 167.791C57.4888 170.984 61.6656 171.998 64.8994 170.055L100.031 148.941C103.265 146.997 104.331 142.833 102.412 139.639L81.5684 104.942L53.5809 98.1499Z" fill="white" stroke="#90A0B7" stroke-width="4" stroke-linecap="round" stroke-linejoin="round"/>
<path d="M53.582 98.147L64.0038 115.496L81.5694 104.939" stroke="#90A0B7" stroke-width="4" stroke-linecap="round" stroke-linejoin="round"/>
<path d="M78.545 126.437L55.125 140.512" stroke="#90A0B7" stroke-width="4" stroke-linecap="round" stroke-linejoin="round"/>
<path d="M85.4903 138.004L62.0703 152.079" stroke="#90A0B7" stroke-width="4" stroke-linecap="round" stroke-linejoin="round"/>
<path d="M54.0288 125.426L51.1013 127.185L48.1738 128.944" stroke="#90A0B7" stroke-width="4" stroke-linecap="round" stroke-linejoin="round"/>
</g>
<path d="M153.462 185.385H3.00332C1.53826 185.385 0.350586 186.571 0.350586 188.034C0.350586 189.496 1.53826 190.682 3.00332 190.682H153.462C154.927 190.682 156.115 189.496 156.115 188.034C156.115 186.571 154.927 185.385 153.462 185.385Z" fill="#90A0B7"/>
<path d="M341.453 198.626H131.912C130.446 198.626 129.259 199.812 129.259 201.274C129.259 202.737 130.446 203.923 131.912 203.923H341.453C342.918 203.923 344.106 202.737 344.106 201.274C344.106 199.812 342.918 198.626 341.453 198.626Z" fill="#90A0B7"/>
<path opacity="0.4" d="M246.492 22.4264C251.654 22.4264 255.839 18.3142 255.839 13.2415C255.839 8.16884 251.654 4.05664 246.492 4.05664C241.329 4.05664 237.144 8.16884 237.144 13.2415C237.144 18.3142 241.329 22.4264 246.492 22.4264Z" stroke="#90A0B7" stroke-width="4"/>
<path opacity="0.5" d="M16.3333 148.099C21.496 148.099 25.6812 143.987 25.6812 138.914C25.6812 133.841 21.496 129.729 16.3333 129.729C11.1706 129.729 6.98535 133.841 6.98535 138.914C6.98535 143.987 11.1706 148.099 16.3333 148.099Z" stroke="#90A0B7" stroke-width="4"/>
<path opacity="0.2" d="M294.11 148.308C298.559 148.308 302.166 144.751 302.166 140.363C302.166 135.975 298.559 132.418 294.11 132.418C289.66 132.418 286.053 135.975 286.053 140.363C286.053 144.751 289.66 148.308 294.11 148.308Z" fill="#F6E9FF"/>
<path d="M223.047 34.5127H121.408C116.873 34.5127 113.196 38.1831 113.196 42.7108V166.508C113.196 171.036 116.873 174.706 121.408 174.706H223.047C227.582 174.706 231.259 171.036 231.259 166.508V42.7108C231.259 38.1831 227.582 34.5127 223.047 34.5127Z" fill="white" stroke="#90A0B7" stroke-width="4"/>
<path d="M137.178 142.702C140.144 142.702 142.549 140.331 142.549 137.406C142.549 134.48 140.144 132.109 137.178 132.109C134.211 132.109 131.807 134.48 131.807 137.406C131.807 140.331 134.211 142.702 137.178 142.702Z" fill="#90A0B7"/>
<path d="M166.31 142.702C169.276 142.702 171.681 140.331 171.681 137.406C171.681 134.48 169.276 132.109 166.31 132.109C163.343 132.109 160.938 134.48 160.938 137.406C160.938 140.331 163.343 142.702 166.31 142.702Z" fill="#90A0B7"/>
<path d="M151.743 142.702C154.71 142.702 157.114 140.331 157.114 137.406C157.114 134.48 154.71 132.109 151.743 132.109C148.777 132.109 146.372 134.48 146.372 137.406C146.372 140.331 148.777 142.702 151.743 142.702Z" fill="#90A0B7"/>
<path opacity="0.6" fill-rule="evenodd" clip-rule="evenodd" d="M302.928 126.784C301.495 129.267 298.317 130.115 295.831 128.679L259.81 107.879C257.324 106.443 256.47 103.266 257.903 100.783L276.066 69.317C277.499 66.8344 280.677 65.9859 283.164 67.4218L292.013 72.5318C293.517 73.4004 294.488 74.9628 294.601 76.6962L294.849 80.4905C294.962 82.2239 295.933 83.7863 297.438 84.6549L315.292 94.965C317.778 96.401 318.632 99.5776 317.199 102.06L302.928 126.784Z" fill="white" stroke="#90A0B7" stroke-width="4" stroke-linecap="round" stroke-linejoin="round"/>
<path opacity="0.4" d="M86.2256 62.6595C95.3438 58.5125 99.4139 47.8482 95.3164 38.84C91.2188 29.8319 80.5053 25.8911 71.387 30.0381C62.2688 34.1851 58.1987 44.8494 62.2962 53.8576C66.3938 62.8657 77.1073 66.8065 86.2256 62.6595Z" fill="#90A0B7"/>
<path fill-rule="evenodd" clip-rule="evenodd" d="M78.2207 47.918L74.725 41.4344C74.0472 40.1695 73.5792 39.2531 73.3209 38.6852C72.9695 37.9123 72.9008 37.216 73.115 36.596C73.3291 35.976 73.7716 35.5135 74.4425 35.2083C75.2551 34.8386 75.9244 34.8684 76.4503 35.2977C76.9763 35.7271 77.4764 36.4632 77.9506 37.506C78.23 38.1205 78.4806 38.7594 78.7024 39.4227L81.224 46.5854C81.5305 47.4349 81.6745 48.1278 81.6562 48.6643C81.6379 49.2008 81.3783 49.583 80.8775 49.8108C80.3673 50.0429 79.9166 49.9923 79.5255 49.6589C79.1345 49.3256 78.6995 48.7453 78.2207 47.918ZM83.9729 56.3923C83.3966 56.6545 82.8098 56.6995 82.2126 56.5273C81.6154 56.3551 81.1666 55.9385 80.8659 55.2774C80.6034 54.7001 80.5856 54.1154 80.8124 53.5234C81.0393 52.9314 81.4504 52.5 82.0456 52.2292C82.6409 51.9583 83.2409 51.9298 83.8455 52.1435C84.4502 52.3573 84.8838 52.7528 85.1463 53.3301C85.4427 53.9818 85.463 54.5907 85.2071 55.1566C84.9513 55.7224 84.5399 56.1343 83.9729 56.3923Z" fill="white"/>
<path d="M212.545 50.3179H131.912C130.446 50.3179 129.259 51.5036 129.259 52.9662C129.259 54.4289 130.446 55.6146 131.912 55.6146H212.545C214.01 55.6146 215.198 54.4289 215.198 52.9662C215.198 51.5036 214.01 50.3179 212.545 50.3179Z" fill="#90A0B7"/>
<path d="M212.545 71.5049H131.912C130.446 71.5049 129.259 72.6906 129.259 74.1532C129.259 75.6159 130.446 76.8016 131.912 76.8016H212.545C214.01 76.8016 215.198 75.6159 215.198 74.1532C215.198 72.6906 214.01 71.5049 212.545 71.5049Z" fill="#90A0B7"/>
<path d="M180.318 92.6919H131.912C130.446 92.6919 129.259 93.8776 129.259 95.3402C129.259 96.8029 130.446 97.9886 131.912 97.9886H180.318C181.783 97.9886 182.971 96.8029 182.971 95.3402C182.971 93.8776 181.783 92.6919 180.318 92.6919Z" fill="#90A0B7"/>
<path opacity="0.5" d="M115.831 10.5934C118.798 10.5934 121.202 8.22198 121.202 5.2967C121.202 2.37141 118.798 0 115.831 0C112.865 0 110.46 2.37141 110.46 5.2967C110.46 8.22198 112.865 10.5934 115.831 10.5934Z" fill="#90A0B7"/>
<path opacity="0.5" d="M258.074 69.8732C261.041 69.8732 263.445 67.5018 263.445 64.5765C263.445 61.6512 261.041 59.2798 258.074 59.2798C255.108 59.2798 252.703 61.6512 252.703 64.5765C252.703 67.5018 255.108 69.8732 258.074 69.8732Z" fill="#90A0B7"/>
<path d="M164.205 185.385H161.454C159.988 185.385 158.801 186.571 158.801 188.034C158.801 189.496 159.988 190.682 161.454 190.682H164.205C165.67 190.682 166.858 189.496 166.858 188.034C166.858 186.571 165.67 185.385 164.205 185.385Z" fill="#90A0B7"/>
<path d="M185.689 185.385H172.196C170.731 185.385 169.543 186.571 169.543 188.034C169.543 189.496 170.731 190.682 172.196 190.682H185.689C187.154 190.682 188.342 189.496 188.342 188.034C188.342 186.571 187.154 185.385 185.689 185.385Z" fill="#90A0B7"/>
<path d="M260.886 185.385H193.68C192.215 185.385 191.027 186.571 191.027 188.034C191.027 189.496 192.215 190.682 193.68 190.682H260.886C262.351 190.682 263.538 189.496 263.538 188.034C263.538 186.571 262.351 185.385 260.886 185.385Z" fill="#90A0B7"/>
<path d="M99.7507 198.626H96.9994C95.5343 198.626 94.3467 199.812 94.3467 201.274C94.3467 202.737 95.5343 203.923 96.9994 203.923H99.7507C101.216 203.923 102.403 202.737 102.403 201.274C102.403 199.812 101.216 198.626 99.7507 198.626Z" fill="#90A0B7"/>
<path d="M121.235 198.626H107.742C106.277 198.626 105.089 199.812 105.089 201.274C105.089 202.737 106.277 203.923 107.742 203.923H121.235C122.7 203.923 123.888 202.737 123.888 201.274C123.888 199.812 122.7 198.626 121.235 198.626Z" fill="#90A0B7"/>
<path d="M220.569 148.224C236.856 148.224 250.059 135.219 250.059 119.176C250.059 103.134 236.856 90.1289 220.569 90.1289C204.282 90.1289 191.079 103.134 191.079 119.176C191.079 135.219 204.282 148.224 220.569 148.224Z" fill="white" stroke="#90A0B7" stroke-width="4"/>
<path d="M241.167 143.756L267.053 174.178C267.018 174.137 267.023 174.076 267.064 174.041L267.065 174.041C267.079 174.029 267.099 174.031 267.111 174.045L241.224 143.622C241.259 143.663 241.254 143.724 241.213 143.759L241.212 143.76C241.198 143.771 241.178 143.769 241.167 143.756Z" fill="#00C300" stroke="#90A0B7" stroke-width="4"/>
<path d="M199.562 119.542C201.77 131.721 207.768 138.683 217.558 140.428" stroke="#90A0B7" stroke-width="4" stroke-linecap="round" stroke-linejoin="round"/>
<path d="M205.326 110.161C206.702 110.161 207.817 109.047 207.817 107.674C207.817 106.3 206.702 105.187 205.326 105.187C203.95 105.187 202.835 106.3 202.835 107.674C202.835 109.047 203.95 110.161 205.326 110.161Z" fill="#E4E4E4" stroke="#90A0B7" stroke-width="4"/>
</g>
<defs>
<clipPath id="clip0">
<rect width="343.756" height="203.923" fill="white" transform="translate(0.350586)"/>
</clipPath>
</defs>
</svg>